<?xml version="1.0" encoding="UTF-8"?><svg id="Calque_2" xmlns="http://www.w3.org/2000/svg" viewBox="0 0 342.46 340.34"><defs><style>.cls-1{fill:#87b9ce;}.cls-1,.cls-2,.cls-3,.cls-4{stroke-width:0px;}.cls-2{fill:#fff;}.cls-3{fill:#4488a6;}.cls-5{fill:#2d2d2b;font-family:TrebuchetMS-Bold, 'Trebuchet MS';font-size:36px;font-weight:700;}.cls-4{fill:#6ea7bd;}</style></defs><g id="Calque_2-2"><path class="cls-2" d="M257.93,39.49c0,21.81-28.5,39.49-63.64,39.49-15.25,0-29.26-3.33-40.22-8.88-9.38,5.55-21.36,8.88-34.41,8.88-11.12,0-21.45-2.41-30.06-6.56-6.3,14.37-23.4,24.68-43.51,24.68C20.64,97.09,0,80.57,0,60.2S20.64,23.3,46.09,23.3c7.8,0,15.16,1.55,21.6,4.29C74.67,11.6,95.29,0,119.66,0c13.06,0,25.03,3.33,34.41,8.88,10.96-5.55,24.97-8.88,40.22-8.88,35.14,0,63.64,17.68,63.64,39.49Z"/></g><g id="Calque_1-2"><path class="cls-1" d="M109.56,35.78l116.82,7.04c8.41,9.16-27.19,59.61,58.59,59.8,10.89,98.66,15.85,191.35-23.73,180.83-94.85,8.4-179.61,6.68-168.41-24.58-4.1-105.82-13.46-228.76,16.74-223.09Z"/><path class="cls-4" d="M115.66,27.62c36.86,0,73.72,0,110.58,0,.56.2,1.1.46,1.67.6,6.63,1.71,12.45,4.7,17.35,9.67,15.09,15.29,30.4,30.36,45.51,45.64,5.95,6.02,9.08,13.5,9.09,21.94.09,49.78.07,99.55.04,149.33-.01,22.25-18.91,41.1-41.12,41.1-46.02,0-92.04,0-138.07,0-22.74,0-41.5-18.75-41.5-41.52,0-61.74-.13-123.48.08-185.22.05-16.58,8-29.03,22.64-36.79,4.23-2.24,9.14-3.2,13.74-4.74ZM223.13,48.73c-1.27-.07-2.29-.17-3.3-.17-32.13,0-64.27,0-96.4,0-1.05,0-2.09.04-3.14.11-11.54.73-19.92,9.63-19.92,21.16,0,61.3,0,122.6.01,183.9,0,1.47.04,2.99.35,4.42,2.28,10.5,10.54,16.85,22.15,16.86,44.45.04,88.9.07,133.34-.08,3.64-.01,7.6-.73,10.86-2.29,8.65-4.13,11.85-11.61,11.83-20.99-.09-47.94-.04-95.88-.05-143.82,0-.96-.08-1.92-.11-2.88-.06-1.78-.81-2.55-2.76-2.52-7.6.11-15.19.06-22.79.04-13.36-.04-25.59-9.08-28.85-22.01-1.17-4.65-1.02-9.66-1.17-14.52-.18-5.65-.04-11.31-.04-17.2Z"/><path class="cls-3" d="M189.68,158.21c18.33,0,36.66-.03,54.99.02,5.37.01,9.46,2.48,11.69,7.37,2.1,4.6,1.39,9.08-1.87,12.97-2.84,3.39-6.69,4.48-10.99,4.48-28.81-.02-57.61-.01-86.42-.01-7.42,0-14.84.05-22.26-.02-5.18-.05-9.34-2.08-11.79-6.83-2.18-4.23-1.93-8.47.72-12.4,2.57-3.82,6.33-5.58,10.94-5.58,18.33,0,36.66,0,54.99,0Z"/><path class="cls-3" d="M189.82,211.66c18.33,0,36.66-.04,54.99.03,5.25.02,9.28,2.48,11.5,7.25,2.13,4.58,1.48,9.05-1.74,12.99-2.6,3.18-6.14,4.54-10.16,4.55-36.57.02-73.15.05-109.72-.01-7.7-.01-13.18-5.55-13.03-12.74.14-6.95,5.83-12.06,13.44-12.06,18.24,0,36.49,0,54.73,0Z"/><path class="cls-3" d="M166.17,104.76c10.38,0,20.77,0,31.15,0,7.33,0,13.04,5.11,13.16,11.74.13,7.48-4.96,12.99-12.64,13.04-21.12.13-42.23.12-63.35,0-7.55-.04-12.94-5.57-12.83-12.66.11-6.96,5.78-12.12,13.36-12.13,10.38,0,20.77,0,31.15,0Z"/><path class="cls-2" d="M342.4,294.19c-1.52-19.77-29.87-33.7-63.3-31.13-14.51,1.12-27.6,5.16-37.64,11-9.31-4.34-20.94-6.49-33.36-5.53-10.57.81-20.23,3.75-28.13,8.15-6.99-12.57-23.98-20.65-43.11-19.18-24.22,1.87-42.69,18.35-41.27,36.82,1.42,18.48,22.21,31.94,46.42,30.07,7.42-.57,14.32-2.52,20.25-5.47,7.75,13.99,28.18,22.99,51.36,21.2,12.42-.96,23.58-4.85,32.12-10.57,10.81,4.23,24.37,6.22,38.88,5.1,33.43-2.58,59.31-20.69,57.79-40.46Z"/><text class="cls-5" transform="translate(192.44 315.57)"><tspan x="0" y="0">PDF</tspan></text></g></svg>